# xmcd
#
# Track frame offsets:
#   150
#   18996
#   36299
#   51376
#   68568
#   87627
#
# Disc length: 1365 seconds
#
# Revision: 1
# Processed by: cddbd v1.5.1PL0 Copyright (c) Steve Scherf et al.
# Submitted via: threefifteen 2.8.0
#
DISCID=4c055306
DTITLE=Jeff Bates - Rainbow Man
DYEAR=2003
DGENRE=Country
TTITLE0=When I Think About Cheatin
TTITLE1=As Good As I Once Was
TTITLE2=My Give A Damn's Busted
TTITLE3=Bless The Broken Road
TTITLE4=
TTITLE5=I Wanna Make You Cry 
EXTD=
EXTT0=
EXTT1=
EXTT2=
EXTT3=
EXTT4=
EXTT5=
PLAYORDER=
